<svg width="80" height="104" viewBox="0 0 80 104" fill="none" xmlns="http://www.w3.org/2000/svg">
<mask id="path-1-inside-1_1088_173" fill="white">
<path d="M0 5C0 2.23858 2.23858 0 5 0H75C77.7614 0 80 2.23858 80 5V99C80 101.761 77.7614 104 75 104H5C2.23858 104 0 101.761 0 99V5Z"/>
</mask>
<path d="M0 5C0 2.23858 2.23858 0 5 0H75C77.7614 0 80 2.23858 80 5V99C80 101.761 77.7614 104 75 104H5C2.23858 104 0 101.761 0 99V5Z" fill="white"/>
<path d="M-2 5C-2 1.13401 1.13401 -2 5 -2H73C76.866 -2 80 1.13401 80 5C80 3.34315 77.7614 2 75 2H5C3.34315 2 2 3.34315 2 5H-2ZM80 104H0H80ZM5 104C1.13401 104 -2 100.866 -2 97V5C-2 1.13401 1.13401 -2 5 -2V2C3.34315 2 2 3.34315 2 5V99C2 101.761 3.34315 104 5 104ZM80 0V104V0Z" fill="#FE964F" fill-opacity="0.36" mask="url(#path-1-inside-1_1088_173)"/>
<path d="M5 12C5 8.13401 8.13401 5 12 5H68C71.866 5 75 8.13401 75 12V92C75 95.866 71.866 99 68 99H12C8.13401 99 5 95.866 5 92V12Z" fill="#FE964F" fill-opacity="0.36"/>
<mask id="mask0_1088_173" style="mask-type:luminance" maskUnits="userSpaceOnUse" x="35" y="45" width="12" height="5">
<path d="M35.4595 45.5819H46.7182V49.3127H35.4595V45.5819Z" fill="white"/>
</mask>
<g mask="url(#mask0_1088_173)">
<path d="M43.0583 45.6099H39.1581C37.1416 45.6099 35.5078 47.2439 35.5078 49.2598V49.3207H46.7085V49.2598C46.7085 47.2439 45.0751 45.6099 43.0583 45.6099Z" fill="#FE964F"/>
</g>
<path d="M44.6454 40.5239C44.6454 40.6464 44.6396 40.7685 44.6275 40.8904C44.6155 41.0122 44.5975 41.1334 44.5738 41.2536C44.5497 41.3738 44.52 41.4924 44.4845 41.6097C44.449 41.727 44.4076 41.842 44.3607 41.9553C44.3138 42.0684 44.2617 42.1788 44.204 42.287C44.146 42.3951 44.0832 42.5 44.0151 42.6017C43.947 42.7036 43.8743 42.802 43.7965 42.8965C43.7189 42.9913 43.6365 43.0819 43.5499 43.1685C43.4635 43.2552 43.3726 43.3373 43.2782 43.4151C43.1834 43.4927 43.085 43.5656 42.9833 43.6337C42.8814 43.7018 42.7765 43.7647 42.6683 43.8223C42.5605 43.8803 42.4497 43.9325 42.3367 43.9794C42.2233 44.0263 42.1083 44.0673 41.991 44.1032C41.8738 44.1387 41.7552 44.1683 41.635 44.1921C41.5148 44.2162 41.3939 44.2341 41.2721 44.2462C41.1499 44.2579 41.0277 44.2641 40.9052 44.2641C40.7827 44.2641 40.6606 44.2579 40.5387 44.2462C40.4169 44.2341 40.2957 44.2162 40.1755 44.1921C40.0556 44.1683 39.9367 44.1387 39.8194 44.1032C39.7025 44.0673 39.5872 44.0263 39.4741 43.9794C39.3607 43.9325 39.2503 43.8803 39.1422 43.8223C39.0343 43.7647 38.9291 43.7018 38.8275 43.6337C38.7255 43.5656 38.6271 43.4927 38.5326 43.4151C38.4378 43.3373 38.3473 43.2552 38.2606 43.1685C38.174 43.0819 38.0919 42.9913 38.014 42.8965C37.9365 42.802 37.8635 42.7036 37.7954 42.6017C37.7273 42.5 37.6644 42.3951 37.6068 42.287C37.5491 42.1788 37.4967 42.0684 37.4498 41.9553C37.4029 41.842 37.3618 41.727 37.3263 41.6097C37.2905 41.4924 37.2608 41.3738 37.237 41.2536C37.2133 41.1334 37.195 41.0122 37.1833 40.8904C37.1712 40.7685 37.165 40.6464 37.165 40.5239C37.165 40.4014 37.1712 40.2792 37.1833 40.1574C37.195 40.0352 37.2133 39.9144 37.237 39.7942C37.2608 39.6739 37.2905 39.5554 37.3263 39.4381C37.3618 39.3208 37.4029 39.2058 37.4498 39.0924C37.4967 38.9794 37.5491 38.8686 37.6068 38.7608C37.6644 38.6527 37.7273 38.5478 37.7954 38.4458C37.8635 38.3441 37.9365 38.2458 38.014 38.1513C38.0919 38.0565 38.174 37.9659 38.2606 37.8793C38.3473 37.7926 38.4378 37.7105 38.5326 37.6327C38.6271 37.5551 38.7255 37.4821 38.8275 37.4141C38.9291 37.346 39.0343 37.2831 39.1422 37.2254C39.2503 37.1675 39.3607 37.1153 39.4741 37.0684C39.5872 37.0215 39.7025 36.9805 39.8194 36.9446C39.9367 36.9091 40.0556 36.8795 40.1755 36.8557C40.2957 36.8316 40.4169 36.8137 40.5387 36.8016C40.6606 36.7896 40.7827 36.7837 40.9052 36.7837C41.0277 36.7837 41.1499 36.7896 41.2721 36.8016C41.3939 36.8137 41.5148 36.8316 41.635 36.8557C41.7552 36.8795 41.8738 36.9091 41.991 36.9446C42.1083 36.9805 42.2233 37.0215 42.3367 37.0684C42.4497 37.1153 42.5605 37.1675 42.6683 37.2254C42.7765 37.2831 42.8814 37.346 42.9833 37.4141C43.085 37.4821 43.1834 37.5551 43.2782 37.6327C43.3726 37.7105 43.4635 37.7926 43.5499 37.8793C43.6365 37.9659 43.7189 38.0565 43.7965 38.151C43.8743 38.2458 43.947 38.3441 44.0151 38.4458C44.0832 38.5478 44.146 38.6527 44.204 38.7608C44.2617 38.8686 44.3138 38.9794 44.3607 39.0924C44.4076 39.2058 44.449 39.3208 44.4845 39.4381C44.52 39.5554 44.5497 39.6739 44.5738 39.7942C44.5975 39.9144 44.6155 40.0352 44.6275 40.1574C44.6396 40.2792 44.6454 40.4014 44.6454 40.5239Z" fill="#FE964F"/>
<path d="M36.6998 30.1675C36.6998 30.3379 36.6913 30.5076 36.6747 30.677C36.6581 30.8464 36.633 31.0145 36.5998 31.1816C36.5665 31.3487 36.5252 31.5136 36.476 31.6765C36.4265 31.8393 36.3691 31.9996 36.304 32.1566C36.2388 32.314 36.1662 32.4678 36.086 32.6179C36.0056 32.7681 35.9182 32.9141 35.8238 33.0555C35.729 33.1972 35.6277 33.3337 35.5198 33.4653C35.4117 33.5969 35.2976 33.723 35.1771 33.8432C35.0569 33.9637 34.9308 34.0777 34.7992 34.1859C34.6676 34.294 34.5311 34.3954 34.3894 34.4898C34.2477 34.5843 34.1021 34.6719 33.9519 34.7521C33.8017 34.8322 33.6479 34.9049 33.4906 34.97C33.3332 35.0352 33.1733 35.0925 33.0104 35.142C32.8475 35.1915 32.6823 35.2329 32.5155 35.2661C32.3484 35.299 32.1803 35.3241 32.0109 35.3407C31.8415 35.3577 31.6715 35.3658 31.5014 35.3658C31.331 35.3658 31.1613 35.3577 30.9919 35.3407C30.8222 35.3241 30.6541 35.299 30.4873 35.2661C30.3202 35.2329 30.1553 35.1915 29.9921 35.142C29.8292 35.0925 29.6693 35.0352 29.5119 34.97C29.3546 34.9049 29.2008 34.8322 29.0506 34.7521C28.9008 34.6719 28.7548 34.5843 28.6131 34.4898C28.4717 34.395 28.3349 34.294 28.2033 34.1859C28.0717 34.0777 27.9459 33.9637 27.8254 33.8432C27.7052 33.723 27.5908 33.5969 27.483 33.4653C27.3749 33.3337 27.2735 33.1972 27.1791 33.0555C27.0843 32.9141 26.997 32.7681 26.9168 32.6179C26.8364 32.4678 26.7637 32.314 26.6985 32.1566C26.6334 31.9996 26.5761 31.8393 26.5265 31.6765C26.4773 31.5136 26.436 31.3487 26.4027 31.1816C26.3695 31.0145 26.3444 30.8464 26.3278 30.677C26.3112 30.5076 26.3027 30.3379 26.3027 30.1675C26.3027 29.9971 26.3112 29.8274 26.3278 29.658C26.3444 29.4886 26.3695 29.3201 26.4027 29.1533C26.436 28.9862 26.4773 28.8214 26.5265 28.6585C26.5761 28.4956 26.6334 28.3353 26.6985 28.178C26.7637 28.0206 26.8364 27.8672 26.9168 27.717C26.997 27.5668 27.0843 27.4209 27.1791 27.2795C27.2735 27.1378 27.3749 27.0013 27.483 26.8697C27.5908 26.7381 27.7052 26.612 27.8254 26.4915C27.9459 26.3712 28.0717 26.2569 28.2033 26.1491C28.3349 26.0409 28.4717 25.9396 28.6131 25.8451C28.7548 25.7506 28.9008 25.663 29.0506 25.5829C29.2008 25.5027 29.3546 25.4298 29.5119 25.3646C29.6693 25.2994 29.8292 25.2421 29.9921 25.1929C30.1553 25.1434 30.3202 25.102 30.4873 25.0688C30.6541 25.0356 30.8222 25.0108 30.9919 24.9942C31.1613 24.9773 31.331 24.9691 31.5014 24.9691C31.6715 24.9691 31.8415 24.9773 32.0109 24.9942C32.1803 25.0108 32.3484 25.0356 32.5155 25.0688C32.6823 25.102 32.8475 25.1434 33.0104 25.1929C33.1733 25.2421 33.3332 25.2994 33.4906 25.3646C33.6479 25.4298 33.8017 25.5027 33.9519 25.5829C34.1021 25.663 34.2477 25.7506 34.3894 25.8451C34.5311 25.9396 34.6676 26.0409 34.7992 26.1491C34.9308 26.2569 35.0569 26.3712 35.1771 26.4915C35.2976 26.612 35.4117 26.7381 35.5198 26.8697C35.6277 27.0013 35.729 27.1378 35.8238 27.2795C35.9182 27.4209 36.0056 27.5668 36.086 27.717C36.1662 27.8672 36.2388 28.0206 36.304 28.178C36.3691 28.3353 36.4265 28.4956 36.476 28.6585C36.5252 28.8214 36.5665 28.9862 36.5998 29.1533C36.633 29.3201 36.6581 29.4886 36.6747 29.658C36.6913 29.8274 36.6998 29.9971 36.6998 30.1675Z" fill="#FE964F"/>
<path d="M53.5593 26.1987C53.5593 26.3687 53.5512 26.5388 53.5346 26.7082C53.5176 26.8776 53.4929 27.0457 53.4596 27.2128C53.4264 27.3796 53.385 27.5448 53.3355 27.7077C53.2863 27.8706 53.229 28.0305 53.1638 28.1879C53.0987 28.3452 53.026 28.499 52.9456 28.6491C52.8654 28.7993 52.7778 28.9449 52.6833 29.0867C52.5888 29.2284 52.4875 29.3649 52.3794 29.4965C52.2715 29.6281 52.1572 29.7542 52.037 29.8744C51.9164 29.9949 51.7904 30.1089 51.6588 30.2171C51.5271 30.3249 51.3906 30.4262 51.2489 30.521C51.1075 30.6155 50.9616 30.7028 50.8114 30.7833C50.6612 30.8634 50.5078 30.9361 50.3505 31.0012C50.1931 31.0664 50.0328 31.1237 49.8699 31.1732C49.707 31.2224 49.5422 31.2638 49.3751 31.297C49.2083 31.3303 49.0399 31.3553 48.8705 31.372C48.7011 31.3886 48.5313 31.397 48.361 31.397C48.1909 31.397 48.0208 31.3886 47.8514 31.372C47.682 31.3553 47.5139 31.3303 47.3468 31.297C47.1797 31.2638 47.0149 31.2224 46.852 31.1732C46.6891 31.1237 46.5288 31.0664 46.3718 31.0012C46.2144 30.9361 46.0607 30.8634 45.9105 30.7833C45.7603 30.7028 45.6144 30.6155 45.473 30.521C45.3313 30.4262 45.1948 30.3249 45.0632 30.2171C44.9315 30.1089 44.8055 29.9949 44.6853 29.8744C44.5647 29.7542 44.4507 29.6281 44.3425 29.4965C44.2344 29.3649 44.1334 29.2284 44.0386 29.0867C43.9441 28.9449 43.8565 28.7993 43.7764 28.6491C43.6962 28.499 43.6236 28.3452 43.5584 28.1879C43.4933 28.0305 43.4359 27.8706 43.3864 27.7077C43.3369 27.5448 43.2955 27.3796 43.2626 27.2128C43.2294 27.0457 43.2043 26.8776 43.1877 26.7082C43.1711 26.5388 43.1626 26.3687 43.1626 26.1987C43.1626 26.0283 43.1711 25.8586 43.1877 25.6892C43.2043 25.5194 43.2294 25.3513 43.2626 25.1846C43.2955 25.0174 43.3369 24.8526 43.3864 24.6897C43.4359 24.5265 43.4933 24.3665 43.5584 24.2092C43.6236 24.0518 43.6962 23.8981 43.7764 23.7479C43.8565 23.598 43.9441 23.4521 44.0386 23.3104C44.1334 23.169 44.2344 23.0322 44.3425 22.9009C44.4507 22.7693 44.5647 22.6432 44.6853 22.5227C44.8055 22.4025 44.9315 22.2881 45.0632 22.1803C45.1948 22.0721 45.3313 21.9708 45.473 21.8763C45.6144 21.7815 45.7603 21.6942 45.9105 21.6141C46.0607 21.5336 46.2144 21.461 46.3718 21.3958C46.5288 21.3307 46.6891 21.2733 46.852 21.2241C47.0149 21.1746 47.1797 21.1332 47.3468 21.1C47.5139 21.0668 47.682 21.0417 47.8514 21.0251C48.0208 21.0085 48.1909 21 48.361 21C48.5313 21 48.7011 21.0085 48.8705 21.0251C49.0399 21.0417 49.2083 21.0668 49.3751 21.1C49.5422 21.1332 49.707 21.1746 49.8699 21.2241C50.0328 21.2733 50.1931 21.3307 50.3505 21.3958C50.5078 21.461 50.6612 21.5336 50.8114 21.6141C50.9616 21.6942 51.1075 21.7815 51.2489 21.8763C51.3906 21.9708 51.5271 22.0721 51.6588 22.1803C51.7904 22.2881 51.9164 22.4025 52.037 22.5227C52.1572 22.6432 52.2715 22.7693 52.3794 22.9009C52.4875 23.0322 52.5888 23.169 52.6833 23.3104C52.7778 23.4521 52.8654 23.598 52.9456 23.7479C53.026 23.8981 53.0987 24.0518 53.1638 24.2092C53.229 24.3665 53.2863 24.5265 53.3355 24.6897C53.385 24.8526 53.4264 25.0174 53.4596 25.1846C53.4929 25.3513 53.5176 25.5194 53.5346 25.6892C53.5512 25.8586 53.5593 26.0283 53.5593 26.1987Z" fill="#FE964F"/>
<mask id="mask1_1088_173" style="mask-type:luminance" maskUnits="userSpaceOnUse" x="41" y="32" width="16" height="18">
<path d="M41.2969 32.4884H56.3997V49.3126H41.2969V32.4884Z" fill="white"/>
</mask>
<g mask="url(#mask1_1088_173)">
<path d="M51.3523 32.5115H45.9324C43.8928 32.5115 42.1391 33.7181 41.3335 35.4539C43.9403 35.6721 45.9963 37.8603 45.9963 40.5239C45.9963 42.0736 45.2982 43.461 44.2029 44.396C46.4097 44.9156 48.0594 46.897 48.0594 49.2601V49.3207H56.4256V37.5847C56.4256 34.7837 54.1546 32.5115 51.3523 32.5115Z" fill="#FE964F"/>
</g>
<mask id="mask2_1088_173" style="mask-type:luminance" maskUnits="userSpaceOnUse" x="24" y="36" width="14" height="14">
<path d="M24 36.4081H37.7111V49.3126H24V36.4081Z" fill="white"/>
</mask>
<g mask="url(#mask2_1088_173)">
<path d="M37.7017 44.4762C36.5514 43.5419 35.8142 42.1183 35.8142 40.5239C35.8142 39.2475 36.2898 38.0826 37.0681 37.188C36.3126 36.7417 35.4346 36.4811 34.4931 36.4811H29.0723C26.2706 36.4808 24 38.7517 24 41.554V49.3208H34.1563V49.2598C34.1563 47.0084 35.6519 45.1014 37.7017 44.4762Z" fill="#FE964F"/>
</g>
</svg>
