<svg width="80" height="104" viewBox="0 0 80 104" fill="none" xmlns="http://www.w3.org/2000/svg">
<mask id="path-1-inside-1_1088_206" fill="white">
<path d="M0 5C0 2.23858 2.23858 0 5 0H75C77.7614 0 80 2.23858 80 5V99C80 101.761 77.7614 104 75 104H5C2.23858 104 0 101.761 0 99V5Z"/>
</mask>
<path d="M0 5C0 2.23858 2.23858 0 5 0H75C77.7614 0 80 2.23858 80 5V99C80 101.761 77.7614 104 75 104H5C2.23858 104 0 101.761 0 99V5Z" fill="white"/>
<path d="M0 0H80H0ZM80 99C80 102.866 76.866 106 73 106H5C1.13401 106 -2 102.866 -2 99H2C2 100.657 3.34315 102 5 102H75C77.7614 102 80 100.657 80 99ZM5 106C1.13401 106 -2 102.866 -2 99V7C-2 3.13401 1.13401 0 5 0C3.34315 0 2 2.23858 2 5V99C2 100.657 3.34315 102 5 102V106ZM80 0V104V0Z" fill="#4FB6FE" fill-opacity="0.36" mask="url(#path-1-inside-1_1088_206)"/>
<path d="M5 12C5 8.13401 8.13401 5 12 5H68C71.866 5 75 8.13401 75 12V92C75 95.866 71.866 99 68 99H12C8.13401 99 5 95.866 5 92V12Z" fill="#4FB6FE" fill-opacity="0.36"/>
<mask id="mask0_1088_206" style="mask-type:luminance" maskUnits="userSpaceOnUse" x="29" y="21" width="21" height="25">
<path d="M29 21H49.3506V45.3882H29V21Z" fill="white"/>
</mask>
<g mask="url(#mask0_1088_206)">
<path d="M46.8041 37.8252L47.2552 37.0995C47.7327 36.3609 49.3194 33.7034 49.3194 31.1558C49.3194 25.5592 44.7644 21.0035 39.1678 21.0035C33.5705 21.0035 29.0181 25.5592 29.0181 31.1558C29.0181 33.7009 30.606 36.3587 31.0929 37.117C31.0805 37.0995 31.8124 38.2608 31.8124 38.2608C33.09 40.2622 34.2944 42.1554 34.5788 44.4665C34.6398 44.9599 35.0575 45.3304 35.5534 45.3304H42.937C43.4312 45.3304 43.8506 44.9599 43.9122 44.4687C44.2189 41.9774 45.4749 39.9586 46.8041 37.8252Z" fill="#4FB6FE"/>
</g>
<path d="M43.0695 46.442H35.1907C34.8189 46.442 34.5176 46.7443 34.5176 47.1161C34.5176 47.4884 34.8189 47.7885 35.1907 47.7885H43.0695C43.44 47.7885 43.7418 47.4884 43.7418 47.1161C43.7418 46.7448 43.44 46.442 43.0695 46.442Z" fill="#4FB6FE"/>
<mask id="mask1_1088_206" style="mask-type:luminance" maskUnits="userSpaceOnUse" x="34" y="48" width="10" height="3">
<path d="M34.4863 48.7694H43.8005V51H34.4863V48.7694Z" fill="white"/>
</mask>
<g mask="url(#mask1_1088_206)">
<path d="M43.0695 48.8132H35.1907C34.8189 48.8132 34.5176 49.1163 34.5176 49.4873C34.5176 49.8596 34.8189 50.1597 35.1907 50.1597H36.821C36.8877 50.62 37.2763 50.9743 37.755 50.9743H40.5799C41.0591 50.9743 41.4486 50.62 41.5144 50.1597H43.0695C43.44 50.1597 43.7418 49.8596 43.7418 49.4873C43.7418 49.1163 43.44 48.8132 43.0695 48.8132Z" fill="#4FB6FE"/>
</g>
</svg>
