<svg width="80" height="104" viewBox="0 0 80 104" fill="none" xmlns="http://www.w3.org/2000/svg">
<mask id="path-1-inside-1_1088_195" fill="white">
<path d="M0 5C0 2.23858 2.23858 0 5 0H75C77.7614 0 80 2.23858 80 5V99C80 101.761 77.7614 104 75 104H5C2.23858 104 0 101.761 0 99V5Z"/>
</mask>
<path d="M0 5C0 2.23858 2.23858 0 5 0H75C77.7614 0 80 2.23858 80 5V99C80 101.761 77.7614 104 75 104H5C2.23858 104 0 101.761 0 99V5Z" fill="white"/>
<path d="M-2 5C-2 1.13401 1.13401 -2 5 -2H73C76.866 -2 80 1.13401 80 5C80 3.34315 77.7614 2 75 2H5C3.34315 2 2 3.34315 2 5H-2ZM80 104H0H80ZM5 104C1.13401 104 -2 100.866 -2 97V5C-2 1.13401 1.13401 -2 5 -2V2C3.34315 2 2 3.34315 2 5V99C2 101.761 3.34315 104 5 104ZM80 0V104V0Z" fill="#E83EFA" fill-opacity="0.36" mask="url(#path-1-inside-1_1088_195)"/>
<path d="M5 12C5 8.13401 8.13401 5 12 5H68C71.866 5 75 8.13401 75 12V92C75 95.866 71.866 99 68 99H12C8.13401 99 5 95.866 5 92V12Z" fill="#E83EFA" fill-opacity="0.36"/>
<mask id="mask0_1088_195" style="mask-type:luminance" maskUnits="userSpaceOnUse" x="24" y="25" width="32" height="32">
<path d="M24 25H56V57H24V25Z" fill="white"/>
</mask>
<g mask="url(#mask0_1088_195)">
<path d="M40.0015 25C36.4462 25 33.0685 26.1527 30.2932 28.28V27.8239C30.2932 27.3039 29.8719 26.8824 29.352 26.8824C28.8321 26.8824 28.4108 27.3039 28.4108 27.8239C28.4108 27.8303 28.4108 30.3607 28.4108 30.3543C28.4116 31.1873 29.4248 31.6121 30.0177 31.0187C32.6844 28.3515 36.2299 26.8824 40.0015 26.8824C47.7867 26.8824 54.1203 33.2162 54.1203 41.0015C54.1203 48.7867 47.7867 55.1203 40.0015 55.1203C32.2162 55.1203 25.8824 48.7867 25.8824 41.0015C25.8824 38.8351 26.36 36.7569 27.3014 34.8251C27.5294 34.3577 27.3351 33.7942 26.8677 33.5665C26.4006 33.3386 25.8371 33.5329 25.6094 34.0002C24.5414 36.1913 24 38.5468 24 41.0015C24 49.845 31.1567 57.003 40.0015 57.003C48.845 57.003 56.003 49.8463 56.003 41.0015C56.003 32.1579 48.8463 25 40.0015 25Z" fill="#E83EFA"/>
</g>
<path d="M40.0018 52.2967C46.23 52.2967 51.297 47.2297 51.297 41.0015C51.297 34.7733 46.23 29.7063 40.0018 29.7063C33.7736 29.7063 28.7065 34.7733 28.7065 41.0015C28.7065 47.2297 33.7736 52.2967 40.0018 52.2967ZM34.7075 44.0317L39.0606 40.5491V35.354C39.0606 34.8341 39.4818 34.4126 40.0018 34.4126C40.5217 34.4126 40.943 34.8341 40.943 35.354V41.0015C40.943 41.2875 40.8132 41.5578 40.5897 41.7364L35.8834 45.5015C35.4788 45.8254 34.8862 45.7619 34.5603 45.3545C34.2357 44.9487 34.3015 44.3563 34.7075 44.0317Z" fill="#E83EFA"/>
</svg>
