<svg width="80" height="104" viewBox="0 0 80 104" fill="none" xmlns="http://www.w3.org/2000/svg">
<mask id="path-1-inside-1_1088_184" fill="white">
<path d="M0 5C0 2.23858 2.23858 0 5 0H75C77.7614 0 80 2.23858 80 5V99C80 101.761 77.7614 104 75 104H5C2.23858 104 0 101.761 0 99V5Z"/>
</mask>
<path d="M0 5C0 2.23858 2.23858 0 5 0H75C77.7614 0 80 2.23858 80 5V99C80 101.761 77.7614 104 75 104H5C2.23858 104 0 101.761 0 99V5Z" fill="white"/>
<path d="M0 0H80H0ZM80 99C80 102.866 76.866 106 73 106H5C1.13401 106 -2 102.866 -2 99H2C2 100.657 3.34315 102 5 102H75C77.7614 102 80 100.657 80 99ZM5 106C1.13401 106 -2 102.866 -2 99V7C-2 3.13401 1.13401 0 5 0C3.34315 0 2 2.23858 2 5V99C2 100.657 3.34315 102 5 102V106ZM80 0V104V0Z" fill="#773EFA" fill-opacity="0.36" mask="url(#path-1-inside-1_1088_184)"/>
<path d="M5 12C5 8.13401 8.13401 5 12 5H68C71.866 5 75 8.13401 75 12V92C75 95.866 71.866 99 68 99H12C8.13401 99 5 95.866 5 92V12Z" fill="#773EFA" fill-opacity="0.36"/>
<mask id="mask0_1088_184" style="mask-type:luminance" maskUnits="userSpaceOnUse" x="28" y="24" width="21" height="27">
<path d="M28 24.3364H48.0953V50.2175H28V24.3364Z" fill="white"/>
</mask>
<g mask="url(#mask0_1088_184)">
<path d="M28.0093 24.353V50.2358H48.0335V28.7758H44.5515C44.2498 28.7758 44.0058 28.5316 44.0058 28.2299V24.353H28.0093ZM40.0642 42.5248H31.0535C30.7521 42.5248 30.5079 42.2806 30.5079 41.9792C30.5079 41.6775 30.7521 41.4336 31.0535 41.4336H40.0642C40.3656 41.4336 40.6098 41.6775 40.6098 41.9792C40.6098 42.2806 40.3656 42.5248 40.0642 42.5248ZM44.9822 38.9995H31.0535C30.7521 38.9995 30.5079 38.7555 30.5079 38.4539C30.5079 38.1524 30.7521 37.9082 31.0535 37.9082H44.9822C45.2836 37.9082 45.5278 38.1524 45.5278 38.4539C45.5278 38.7555 45.2836 38.9995 44.9822 38.9995ZM44.9822 35.4671H31.0535C30.7521 35.4671 30.5079 35.2231 30.5079 34.9215C30.5079 34.62 30.7521 34.3758 31.0535 34.3758H44.9822C45.2836 34.3758 45.5278 34.62 45.5278 34.9215C45.5278 35.2231 45.2836 35.4671 44.9822 35.4671ZM44.9822 30.8434C45.2836 30.8434 45.5278 31.0877 45.5278 31.3891C45.5278 31.6908 45.2836 31.9347 44.9822 31.9347H31.0535C30.7521 31.9347 30.5079 31.6908 30.5079 31.3891C30.5079 31.0877 30.7521 30.8434 31.0535 30.8434H44.9822Z" fill="#773EFA"/>
</g>
<path d="M47.3442 27.6842L45.0972 25.2146V27.6842H47.3442Z" fill="#773EFA"/>
<mask id="mask1_1088_184" style="mask-type:luminance" maskUnits="userSpaceOnUse" x="30" y="21" width="21" height="26">
<path d="M30.8921 21H51V46.9001H30.8921V21Z" fill="white"/>
</mask>
<g mask="url(#mask1_1088_184)">
<path d="M30.9458 21V23.2617H44.5514C44.5585 23.2617 44.5585 23.2617 44.5658 23.2617C44.6016 23.2617 44.6376 23.276 44.6734 23.2831C44.7092 23.2904 44.7452 23.2904 44.7739 23.3048C44.7954 23.3191 44.817 23.3335 44.8458 23.3479C44.8816 23.3693 44.9176 23.391 44.9463 23.4268L44.9534 23.4341L48.9813 27.8566C49.0027 27.8783 49.01 27.8997 49.0244 27.9284C49.0458 27.9642 49.0675 27.993 49.0889 28.029C49.1032 28.0648 49.1105 28.1079 49.1105 28.151C49.1176 28.1797 49.1249 28.2014 49.1249 28.2299V46.8828H50.9771V21H30.9458Z" fill="#773EFA"/>
</g>
</svg>
