<svg width="80" height="104" viewBox="0 0 80 104" fill="none" xmlns="http://www.w3.org/2000/svg">
<mask id="path-1-inside-1_1088_172" fill="white">
<path d="M0 5C0 2.23858 2.23858 0 5 0H75C77.7614 0 80 2.23858 80 5V99C80 101.761 77.7614 104 75 104H5C2.23858 104 0 101.761 0 99V5Z"/>
</mask>
<path d="M0 5C0 2.23858 2.23858 0 5 0H75C77.7614 0 80 2.23858 80 5V99C80 101.761 77.7614 104 75 104H5C2.23858 104 0 101.761 0 99V5Z" fill="white"/>
<path d="M0 0H80H0ZM82 99C82 102.866 78.866 106 75 106H7C3.13401 106 0 102.866 0 99C0 100.657 2.23858 102 5 102H75C76.6569 102 78 100.657 78 99H82ZM0 104V0V104ZM75 0C78.866 0 82 3.13401 82 7V99C82 102.866 78.866 106 75 106V102C76.6569 102 78 100.657 78 99V5C78 2.23858 76.6569 0 75 0Z" fill="#FF5DA3" fill-opacity="0.36" mask="url(#path-1-inside-1_1088_172)"/>
<rect x="5" y="5" width="70" height="94" rx="7" fill="#FF5DA3" fill-opacity="0.36"/>
<mask id="mask0_1088_172" style="mask-type:luminance" maskUnits="userSpaceOnUse" x="22" y="21" width="36" height="32">
<path d="M22 21H57.1931V52.4333H22V21Z" fill="white"/>
</mask>
<g mask="url(#mask0_1088_172)">
<path d="M54.1804 23.9293C52.2925 22.0413 49.7688 21 47.0772 21C44.3897 21 41.866 22.0413 39.9781 23.9293L39.5647 24.3429L39.1511 23.9293C37.2632 22.0413 34.7395 21 32.052 21C29.3604 21 26.8367 22.0413 24.9488 23.9293C21.0327 27.8456 21.0327 34.2153 24.9488 38.1317L39.0381 52.2207C39.1824 52.365 39.3736 52.4393 39.5647 52.4393C39.7556 52.4393 39.947 52.365 40.0911 52.2207L54.1804 38.1317C58.0968 34.2153 58.0968 27.8456 54.1804 23.9293ZM39.5647 41.9502C35.6055 41.9502 32.3833 38.7284 32.3833 34.7691C32.3833 30.8098 35.6055 27.588 39.5647 27.588C43.5237 27.588 46.7458 30.8101 46.7458 34.7694C46.7458 38.7284 43.5237 41.9502 39.5647 41.9502Z" fill="#FF5DA3"/>
</g>
<path d="M40.8701 35.7976V39.6976C40.8701 39.9141 40.6948 40.0894 40.4783 40.0894H38.6908C38.4743 40.0894 38.299 39.9141 38.299 39.6976V35.7976H34.4387C34.2222 35.7976 34.0469 35.6223 34.0469 35.4058V33.7963C34.0469 33.5801 34.2222 33.4045 34.4387 33.4045H38.299V29.8406C38.299 29.6244 38.4743 29.4491 38.6908 29.4491H40.4783C40.6948 29.4491 40.8701 29.6244 40.8701 29.8406V33.4045H44.6911C44.9073 33.4045 45.0826 33.5799 45.0826 33.7963V35.4058C45.0826 35.6223 44.9073 35.7976 44.6911 35.7976H40.8701Z" fill="#FF5DA3"/>
<path d="M26.3842 84.07C25.8975 84.07 25.4575 83.9867 25.0642 83.82C24.6775 83.6533 24.3708 83.4133 24.1442 83.1C23.9175 82.7867 23.8008 82.4167 23.7942 81.99H25.2942C25.3142 82.2767 25.4142 82.5033 25.5942 82.67C25.7808 82.8367 26.0342 82.92 26.3542 82.92C26.6808 82.92 26.9375 82.8433 27.1242 82.69C27.3108 82.53 27.4042 82.3233 27.4042 82.07C27.4042 81.8633 27.3408 81.6933 27.2142 81.56C27.0875 81.4267 26.9275 81.3233 26.7342 81.25C26.5475 81.17 26.2875 81.0833 25.9542 80.99C25.5008 80.8567 25.1308 80.7267 24.8442 80.6C24.5642 80.4667 24.3208 80.27 24.1142 80.01C23.9142 79.7433 23.8142 79.39 23.8142 78.95C23.8142 78.5367 23.9175 78.1767 24.1242 77.87C24.3308 77.5633 24.6208 77.33 24.9942 77.17C25.3675 77.0033 25.7942 76.92 26.2742 76.92C26.9942 76.92 27.5775 77.0967 28.0242 77.45C28.4775 77.7967 28.7275 78.2833 28.7742 78.91H27.2342C27.2208 78.67 27.1175 78.4733 26.9242 78.32C26.7375 78.16 26.4875 78.08 26.1742 78.08C25.9008 78.08 25.6808 78.15 25.5142 78.29C25.3542 78.43 25.2742 78.6333 25.2742 78.9C25.2742 79.0867 25.3342 79.2433 25.4542 79.37C25.5808 79.49 25.7342 79.59 25.9142 79.67C26.1008 79.7433 26.3608 79.83 26.6942 79.93C27.1475 80.0633 27.5175 80.1967 27.8042 80.33C28.0908 80.4633 28.3375 80.6633 28.5442 80.93C28.7508 81.1967 28.8542 81.5467 28.8542 81.98C28.8542 82.3533 28.7575 82.7 28.5642 83.02C28.3708 83.34 28.0875 83.5967 27.7142 83.79C27.3408 83.9767 26.8975 84.07 26.3842 84.07ZM29.7079 81.21C29.7079 80.65 29.8179 80.1533 30.0379 79.72C30.2646 79.2867 30.5679 78.9533 30.9479 78.72C31.3346 78.4867 31.7646 78.37 32.2379 78.37C32.6513 78.37 33.0113 78.4533 33.3179 78.62C33.6313 78.7867 33.8813 78.9967 34.0679 79.25V78.46H35.4779V84H34.0679V83.19C33.8879 83.45 33.6379 83.6667 33.3179 83.84C33.0046 84.0067 32.6413 84.09 32.2279 84.09C31.7613 84.09 31.3346 83.97 30.9479 83.73C30.5679 83.49 30.2646 83.1533 30.0379 82.72C29.8179 82.28 29.7079 81.7767 29.7079 81.21ZM34.0679 81.23C34.0679 80.89 34.0013 80.6 33.8679 80.36C33.7346 80.1133 33.5546 79.9267 33.3279 79.8C33.1013 79.6667 32.8579 79.6 32.5979 79.6C32.3379 79.6 32.0979 79.6633 31.8779 79.79C31.6579 79.9167 31.4779 80.1033 31.3379 80.35C31.2046 80.59 31.1379 80.8767 31.1379 81.21C31.1379 81.5433 31.2046 81.8367 31.3379 82.09C31.4779 82.3367 31.6579 82.5267 31.8779 82.66C32.1046 82.7933 32.3446 82.86 32.5979 82.86C32.8579 82.86 33.1013 82.7967 33.3279 82.67C33.5546 82.5367 33.7346 82.35 33.8679 82.11C34.0013 81.8633 34.0679 81.57 34.0679 81.23ZM42.0753 78.46V84H40.6653V83.3C40.4853 83.54 40.2486 83.73 39.9553 83.87C39.6686 84.0033 39.3553 84.07 39.0153 84.07C38.5819 84.07 38.1986 83.98 37.8653 83.8C37.5319 83.6133 37.2686 83.3433 37.0753 82.99C36.8886 82.63 36.7953 82.2033 36.7953 81.71V78.46H38.1953V81.51C38.1953 81.95 38.3053 82.29 38.5253 82.53C38.7453 82.7633 39.0453 82.88 39.4253 82.88C39.8119 82.88 40.1153 82.7633 40.3353 82.53C40.5553 82.29 40.6653 81.95 40.6653 81.51V78.46H42.0753ZM40.5553 77.02L38.2553 78.07V77.07L40.5553 75.88V77.02ZM43.0966 81.21C43.0966 80.65 43.2066 80.1533 43.4266 79.72C43.6533 79.2867 43.9599 78.9533 44.3466 78.72C44.7333 78.4867 45.1633 78.37 45.6366 78.37C45.9966 78.37 46.3399 78.45 46.6666 78.61C46.9933 78.7633 47.2533 78.97 47.4466 79.23V76.6H48.8666V84H47.4466V83.18C47.2733 83.4533 47.0299 83.6733 46.7166 83.84C46.4033 84.0067 46.0399 84.09 45.6266 84.09C45.1599 84.09 44.7333 83.97 44.3466 83.73C43.9599 83.49 43.6533 83.1533 43.4266 82.72C43.2066 82.28 43.0966 81.7767 43.0966 81.21ZM47.4566 81.23C47.4566 80.89 47.3899 80.6 47.2566 80.36C47.1233 80.1133 46.9433 79.9267 46.7166 79.8C46.4899 79.6667 46.2466 79.6 45.9866 79.6C45.7266 79.6 45.4866 79.6633 45.2666 79.79C45.0466 79.9167 44.8666 80.1033 44.7266 80.35C44.5933 80.59 44.5266 80.8767 44.5266 81.21C44.5266 81.5433 44.5933 81.8367 44.7266 82.09C44.8666 82.3367 45.0466 82.5267 45.2666 82.66C45.4933 82.7933 45.7333 82.86 45.9866 82.86C46.2466 82.86 46.4899 82.7967 46.7166 82.67C46.9433 82.5367 47.1233 82.35 47.2566 82.11C47.3899 81.8633 47.4566 81.57 47.4566 81.23ZM55.3839 81.11C55.3839 81.31 55.3706 81.49 55.3439 81.65H51.2939C51.3273 82.05 51.4673 82.3633 51.7139 82.59C51.9606 82.8167 52.2639 82.93 52.6239 82.93C53.1439 82.93 53.5139 82.7067 53.7339 82.26H55.2439C55.0839 82.7933 54.7773 83.2333 54.3239 83.58C53.8706 83.92 53.3139 84.09 52.6539 84.09C52.1206 84.09 51.6406 83.9733 51.2139 83.74C50.7939 83.5 50.4639 83.1633 50.2239 82.73C49.9906 82.2967 49.8739 81.7967 49.8739 81.23C49.8739 80.6567 49.9906 80.1533 50.2239 79.72C50.4573 79.2867 50.7839 78.9533 51.2039 78.72C51.6239 78.4867 52.1073 78.37 52.6539 78.37C53.1806 78.37 53.6506 78.4833 54.0639 78.71C54.4839 78.9367 54.8073 79.26 55.0339 79.68C55.2673 80.0933 55.3839 80.57 55.3839 81.11ZM53.9339 80.71C53.9273 80.35 53.7973 80.0633 53.5439 79.85C53.2906 79.63 52.9806 79.52 52.6139 79.52C52.2673 79.52 51.9739 79.6267 51.7339 79.84C51.5006 80.0467 51.3573 80.3367 51.3039 80.71H53.9339Z" fill="black"/>
</svg>
