<svg width="38" height="38" viewBox="0 0 38 38" fill="none" xmlns="http://www.w3.org/2000/svg">
<circle cx="19" cy="19" r="18.5" fill="#F5F5F5" stroke="#F5F5F5"/>
<path d="M23.342 18.5747C22.7873 15.0067 22.8123 11.5338 18.5248 11.5338C14.2373 11.5338 14.2623 15.0317 13.7076 18.5747C13.4178 20.4436 12.2585 22.0427 11.2092 23.142C11.1777 23.175 11.1488 23.2101 11.1223 23.2475C11.096 23.2847 11.0726 23.3238 11.0519 23.3644C11.0313 23.4052 11.0137 23.4472 10.9993 23.4905C10.9848 23.5338 10.9736 23.578 10.9656 23.6229C10.9576 23.6678 10.9529 23.7131 10.9516 23.7587C10.9502 23.8044 10.9521 23.8498 10.9575 23.8953C10.9628 23.9406 10.9714 23.9852 10.9833 24.0294C10.9951 24.0734 11.0101 24.1164 11.0283 24.1583C11.0464 24.2002 11.0675 24.2406 11.0916 24.2793C11.1157 24.3181 11.1424 24.3549 11.1719 24.3898C11.2014 24.4247 11.2333 24.4573 11.2675 24.4875C11.3018 24.5175 11.338 24.5451 11.3762 24.57C11.4145 24.5949 11.4544 24.6169 11.4959 24.6359C11.5374 24.6549 11.58 24.6709 11.6239 24.6837C11.6676 24.6964 11.7122 24.7059 11.7575 24.7122C11.8027 24.7184 11.8481 24.7214 11.8937 24.7211H25.1459C25.1916 24.7214 25.2369 24.7184 25.2822 24.7122C25.3274 24.7059 25.3719 24.6964 25.4158 24.6837C25.4596 24.6709 25.5023 24.6549 25.5437 24.6359C25.5852 24.6169 25.6251 24.5949 25.6633 24.57C25.7016 24.5451 25.738 24.5175 25.7722 24.4875C25.8064 24.4573 25.8382 24.4247 25.8676 24.3898C25.8972 24.3549 25.9239 24.3181 25.948 24.2793C25.9721 24.2406 25.9932 24.2002 26.0114 24.1583C26.0295 24.1164 26.0445 24.0734 26.0564 24.0294C26.0683 23.9852 26.0768 23.9406 26.0821 23.8953C26.0874 23.8498 26.0894 23.8044 26.0881 23.7587C26.0867 23.7131 26.082 23.6678 26.074 23.6229C26.066 23.578 26.0548 23.5338 26.0403 23.4905C26.0258 23.4472 26.0083 23.4052 25.9877 23.3644C25.967 23.3238 25.9436 23.2847 25.9173 23.2475C25.891 23.2101 25.8619 23.175 25.8305 23.142C24.7911 22.0376 23.6468 20.4385 23.342 18.5747Z" fill="#005EB7"/>
<mask id="mask0_1191_176" style="mask-type:luminance" maskUnits="userSpaceOnUse" x="17" y="9" width="3" height="2">
<path d="M17.4331 9.53003H19.6664V10.6333H17.4331V9.53003Z" fill="white"/>
</mask>
<g mask="url(#mask0_1191_176)">
<path d="M19.6489 10.6094C19.6489 10.5734 19.6471 10.5375 19.6436 10.5017C19.64 10.4657 19.6348 10.4302 19.6278 10.3949C19.6208 10.3596 19.612 10.3247 19.6015 10.2902C19.5911 10.2558 19.579 10.222 19.5652 10.1887C19.5514 10.1555 19.536 10.1229 19.5191 10.0911C19.5021 10.0594 19.4837 10.0285 19.4636 9.99868C19.4436 9.96873 19.4222 9.93983 19.3993 9.91196C19.3765 9.8841 19.3524 9.85754 19.3269 9.83201C19.3014 9.80662 19.2748 9.78241 19.2469 9.75962C19.2191 9.7367 19.1902 9.71535 19.1604 9.6953C19.1304 9.67537 19.0995 9.65688 19.0678 9.63983C19.036 9.6229 19.0035 9.60754 18.9702 9.59373C18.9369 9.57993 18.9031 9.56782 18.8687 9.55741C18.8342 9.54699 18.7993 9.53813 18.764 9.5311C18.7287 9.5242 18.6932 9.51886 18.6572 9.51535C18.6214 9.51183 18.5855 9.51001 18.5495 9.51001C18.5135 9.51001 18.4777 9.51183 18.4417 9.51535C18.4059 9.51886 18.3704 9.5242 18.3351 9.5311C18.2998 9.53813 18.2649 9.54699 18.2304 9.55741C18.1959 9.56782 18.162 9.57993 18.1288 9.59373C18.0955 9.60754 18.0631 9.6229 18.0313 9.63983C17.9995 9.65688 17.9687 9.67537 17.9387 9.6953C17.9088 9.71535 17.8799 9.7367 17.8521 9.75962C17.8243 9.78241 17.7976 9.80662 17.7722 9.83201C17.7467 9.85754 17.7226 9.8841 17.6997 9.91196C17.6769 9.93983 17.6554 9.96873 17.6355 9.99868C17.6154 10.0285 17.5969 10.0594 17.58 10.0911C17.563 10.1229 17.5476 10.1555 17.5339 10.1887C17.5201 10.222 17.508 10.2558 17.4975 10.2902C17.487 10.3247 17.4783 10.3596 17.4713 10.3949C17.4643 10.4302 17.459 10.4657 17.4555 10.5017C17.4519 10.5375 17.4502 10.5734 17.4502 10.6094C18.1831 10.5022 18.916 10.5022 19.6489 10.6094Z" fill="#005EB7"/>
</g>
<path d="M18.5248 27.4593C18.5868 27.4591 18.6487 27.4561 18.7104 27.4505C18.7721 27.4449 18.8336 27.4367 18.8945 27.4259C18.9556 27.4151 19.0161 27.4017 19.0759 27.3856C19.1358 27.3696 19.1949 27.3511 19.2532 27.33C19.3116 27.3091 19.3688 27.2855 19.4251 27.2596C19.4815 27.2337 19.5366 27.2054 19.5905 27.1748C19.6442 27.1441 19.6968 27.1113 19.7479 27.0761C19.7989 27.041 19.8484 27.0039 19.8963 26.9644C19.9442 26.9251 19.9903 26.8838 20.0347 26.8406C20.0791 26.7972 20.1216 26.7522 20.1621 26.7053C20.2027 26.6584 20.2411 26.6099 20.2774 26.5597C20.3139 26.5095 20.348 26.4579 20.38 26.4048C20.4121 26.3517 20.4416 26.2972 20.469 26.2416C20.4963 26.186 20.5213 26.1294 20.5438 26.0716C20.5662 26.0138 20.5863 25.9552 20.6037 25.8958C20.6213 25.8363 20.6362 25.7761 20.6485 25.7155H16.3911C16.4035 25.7764 16.4185 25.8367 16.436 25.8963C16.4536 25.9559 16.4738 26.0148 16.4963 26.0727C16.519 26.1307 16.544 26.1876 16.5715 26.2433C16.5989 26.2992 16.6287 26.3536 16.6609 26.4069C16.6931 26.4601 16.7274 26.5119 16.764 26.5622C16.8006 26.6125 16.8393 26.6612 16.88 26.7082C16.9208 26.755 16.9635 26.8002 17.008 26.8436C17.0527 26.8869 17.0991 26.9282 17.1472 26.9677C17.1954 27.007 17.2451 27.0442 17.2965 27.0793C17.3478 27.1144 17.4006 27.1472 17.4547 27.1778C17.5088 27.2084 17.5643 27.2367 17.6208 27.2625C17.6773 27.2882 17.735 27.3117 17.7935 27.3326C17.8521 27.3535 17.9114 27.3718 17.9716 27.3877C18.0317 27.4035 18.0924 27.4168 18.1537 27.4273C18.2151 27.438 18.2767 27.4459 18.3386 27.4513C18.4006 27.4567 18.4626 27.4593 18.5248 27.4593Z" fill="#005EB7"/>
<path d="M15.52 15.5201H21.4797V21.4798H15.52V15.5201Z" fill="#005EB7"/>
</svg>
